<svg width="66" height="66" viewBox="0 0 66 66" fill="none" xmlns="http://www.w3.org/2000/svg">
<g filter="url(#filter0_d_15_1971)">
<rect x="8" y="4" width="50" height="50" rx="25" fill="#2F73F2" shape-rendering="crispEdges"/>
<path d="M33 19.25C27.6 19.25 23.25 23.6 23.25 29C23.25 34.4 27.6 38.75 33 38.75C38.4 38.75 42.75 34.4 42.75 29C42.75 27.95 42.609 26.9045 42.234 25.9295L41.016 27.125C41.166 27.725 41.2507 28.325 41.2507 29C41.2507 33.575 37.5757 37.25 33.0007 37.25C28.4257 37.25 24.75 33.575 24.75 29C24.75 24.425 28.425 20.75 33 20.75C35.25 20.75 37.2705 21.6455 38.6955 23.0705L39.75 22.016C38.025 20.291 35.625 19.25 33 19.25ZM41.46 22.46L33 30.9222L29.79 27.7122L28.71 28.79L32.46 32.54L33 33.0545L33.54 32.5392L42.54 23.5392L41.46 22.4592V22.46Z" fill="white"/>
</g>
<defs>
<filter id="filter0_d_15_1971" x="0" y="0" width="66" height="66" filterUnits="userSpaceOnUse" color-interpolation-filters="sRGB">
<feFlood flood-opacity="0" result="BackgroundImageFix"/>
<feColorMatrix in="SourceAlpha" type="matrix" values="0 0 0 0 0 0 0 0 0 0 0 0 0 0 0 0 0 0 127 0" result="hardAlpha"/>
<feOffset dy="4"/>
<feGaussianBlur stdDeviation="4"/>
<feComposite in2="hardAlpha" operator="out"/>
<feColorMatrix type="matrix" values="0 0 0 0 0.184314 0 0 0 0 0.45098 0 0 0 0 0.94902 0 0 0 0.15 0"/>
<feBlend mode="normal" in2="BackgroundImageFix" result="effect1_dropShadow_15_1971"/>
<feBlend mode="normal" in="SourceGraphic" in2="effect1_dropShadow_15_1971" result="shape"/>
</filter>
</defs>
</svg>
