<svg width="22" height="16" viewBox="0 0 22 16" fill="none" xmlns="http://www.w3.org/2000/svg">
<path d="M2.75 0.5C1.51625 0.5 0.5 1.51625 0.5 2.75V13.25C0.5 14.4838 1.51625 15.5 2.75 15.5H19.25C20.4837 15.5 21.5 14.4838 21.5 13.25V2.75C21.5 1.51625 20.4837 0.5 19.25 0.5H2.75ZM2.75 2H19.25C19.6737 2 20 2.32625 20 2.75V13.25C20 13.6737 19.6737 14 19.25 14H2.75C2.32625 14 2 13.6737 2 13.25V2.75C2 2.32625 2.32625 2 2.75 2ZM13.5545 5.28125C12.11 5.28125 11.3517 5.99375 11.3517 6.89825C11.3517 8.5355 13.2717 8.30825 13.2717 9.14825C13.2717 9.293 13.1517 9.6185 12.3568 9.6185C11.5618 9.6185 11.0443 9.33725 11.0443 9.33725L10.8117 10.4172C10.8117 10.4172 11.303 10.721 12.2892 10.721C13.2717 10.721 14.6547 9.965 14.6547 8.8685C14.6547 7.5515 12.7325 7.4645 12.7325 6.87725C12.7325 6.57725 12.9875 6.33725 13.67 6.33725C14.1155 6.33725 14.6075 6.68975 14.6075 6.68975L14.843 5.54225C14.843 5.54225 14.1905 5.2835 13.553 5.2835L13.5545 5.28125ZM7.391 5.375L6.125 9.0785C6.125 9.0785 6.062 8.7575 6.03125 8.5625C5.315 6.9575 4.15625 6.359 4.15625 6.359L5.25875 10.5545H6.75875L8.86625 5.375H7.3925H7.391ZM9.40625 5.375L8.58575 10.5545H9.97025L10.79 5.375H9.40625ZM16.8597 5.375L14.6097 10.5545H15.9688L16.25 9.8285H17.9847L18.125 10.5545H19.367L18.3125 5.375H16.8597ZM2.63225 5.3975C2.63225 5.3975 5.33 6.22625 5.96075 8.258L5.4935 5.91425C5.4935 5.91425 5.28725 5.39675 4.7435 5.39675H2.633L2.63225 5.3975ZM17.375 6.875L17.7725 8.8205H16.6475L17.375 6.875Z" fill="white"/>
</svg>
