<svg width="66" height="66" viewBox="0 0 66 66" fill="none" xmlns="http://www.w3.org/2000/svg">
<g filter="url(#filter0_d_15_1914)">
<rect x="8" y="4" width="50" height="50" rx="25" fill="#2F73F2" shape-rendering="crispEdges"/>
<path d="M24.75 21.5C23.5163 21.5 22.5 22.5163 22.5 23.75V34.25C22.5 35.4838 23.5163 36.5 24.75 36.5H41.25C42.4837 36.5 43.5 35.4838 43.5 34.25V23.75C43.5 22.5163 42.4837 21.5 41.25 21.5H24.75ZM24.75 23H41.25C41.6737 23 42 23.3262 42 23.75V34.25C42 34.6737 41.6737 35 41.25 35H24.75C24.3262 35 24 34.6737 24 34.25V23.75C24 23.3262 24.3262 23 24.75 23ZM35.5545 26.2812C34.11 26.2812 33.3517 26.9938 33.3517 27.8983C33.3517 29.5355 35.2717 29.3082 35.2717 30.1483C35.2717 30.293 35.1517 30.6185 34.3568 30.6185C33.5618 30.6185 33.0443 30.3373 33.0443 30.3373L32.8117 31.4172C32.8117 31.4172 33.303 31.721 34.2892 31.721C35.2717 31.721 36.6547 30.965 36.6547 29.8685C36.6547 28.5515 34.7325 28.4645 34.7325 27.8773C34.7325 27.5773 34.9875 27.3372 35.67 27.3372C36.1155 27.3372 36.6075 27.6898 36.6075 27.6898L36.843 26.5422C36.843 26.5422 36.1905 26.2835 35.553 26.2835L35.5545 26.2812ZM29.391 26.375L28.125 30.0785C28.125 30.0785 28.062 29.7575 28.0312 29.5625C27.315 27.9575 26.1562 27.359 26.1562 27.359L27.2587 31.5545H28.7587L30.8663 26.375H29.3925H29.391ZM31.4062 26.375L30.5858 31.5545H31.9703L32.79 26.375H31.4062ZM38.8597 26.375L36.6097 31.5545H37.9688L38.25 30.8285H39.9847L40.125 31.5545H41.367L40.3125 26.375H38.8597ZM24.6322 26.3975C24.6322 26.3975 27.33 27.2262 27.9608 29.258L27.4935 26.9142C27.4935 26.9142 27.2873 26.3968 26.7435 26.3968H24.633L24.6322 26.3975ZM39.375 27.875L39.7725 29.8205H38.6475L39.375 27.875Z" fill="white"/>
</g>
<defs>
<filter id="filter0_d_15_1914" x="0" y="0" width="66" height="66" filterUnits="userSpaceOnUse" color-interpolation-filters="sRGB">
<feFlood flood-opacity="0" result="BackgroundImageFix"/>
<feColorMatrix in="SourceAlpha" type="matrix" values="0 0 0 0 0 0 0 0 0 0 0 0 0 0 0 0 0 0 127 0" result="hardAlpha"/>
<feOffset dy="4"/>
<feGaussianBlur stdDeviation="4"/>
<feComposite in2="hardAlpha" operator="out"/>
<feColorMatrix type="matrix" values="0 0 0 0 0.184314 0 0 0 0 0.45098 0 0 0 0 0.94902 0 0 0 0.15 0"/>
<feBlend mode="normal" in2="BackgroundImageFix" result="effect1_dropShadow_15_1914"/>
<feBlend mode="normal" in="SourceGraphic" in2="effect1_dropShadow_15_1914" result="shape"/>
</filter>
</defs>
</svg>
