<svg width="66" height="66" viewBox="0 0 66 66" fill="none" xmlns="http://www.w3.org/2000/svg">
<g filter="url(#filter0_d_15_1857)">
<rect x="8" y="4" width="50" height="50" rx="25" fill="#2F73F2" shape-rendering="crispEdges"/>
<path d="M33 20.75C30.1095 20.75 27.75 23.1095 27.75 26C27.75 27.8075 28.6725 29.414 30.0705 30.3597C27.3952 31.5072 25.5 34.16 25.5 37.25H27C27 33.9275 29.6775 31.25 33 31.25C36.3225 31.25 39 33.9275 39 37.25H40.5C40.5 34.16 38.6047 31.5065 35.9295 30.359C36.6432 29.8775 37.2279 29.2284 37.6325 28.4684C38.037 27.7085 38.2491 26.8609 38.25 26C38.25 23.1095 35.8905 20.75 33 20.75ZM33 22.25C35.0798 22.25 36.75 23.9202 36.75 26C36.75 28.0798 35.0798 29.75 33 29.75C30.9202 29.75 29.25 28.0798 29.25 26C29.25 23.9202 30.9202 22.25 33 22.25Z" fill="white"/>
</g>
<defs>
<filter id="filter0_d_15_1857" x="0" y="0" width="66" height="66" filterUnits="userSpaceOnUse" color-interpolation-filters="sRGB">
<feFlood flood-opacity="0" result="BackgroundImageFix"/>
<feColorMatrix in="SourceAlpha" type="matrix" values="0 0 0 0 0 0 0 0 0 0 0 0 0 0 0 0 0 0 127 0" result="hardAlpha"/>
<feOffset dy="4"/>
<feGaussianBlur stdDeviation="4"/>
<feComposite in2="hardAlpha" operator="out"/>
<feColorMatrix type="matrix" values="0 0 0 0 0.184314 0 0 0 0 0.45098 0 0 0 0 0.94902 0 0 0 0.15 0"/>
<feBlend mode="normal" in2="BackgroundImageFix" result="effect1_dropShadow_15_1857"/>
<feBlend mode="normal" in="SourceGraphic" in2="effect1_dropShadow_15_1857" result="shape"/>
</filter>
</defs>
</svg>
