<svg width="16" height="18" viewBox="0 0 16 18" fill="none" xmlns="http://www.w3.org/2000/svg">
<path d="M8 0.75C5.1095 0.75 2.75 3.1095 2.75 6C2.75 7.8075 3.6725 9.414 5.0705 10.3597C2.39525 11.5072 0.5 14.16 0.5 17.25H2C2 13.9275 4.6775 11.25 8 11.25C11.3225 11.25 14 13.9275 14 17.25H15.5C15.5 14.16 13.6047 11.5065 10.9295 10.359C11.6432 9.87752 12.2279 9.22838 12.6325 8.46843C13.037 7.70848 13.2491 6.86092 13.25 6C13.25 3.1095 10.8905 0.75 8 0.75ZM8 2.25C10.0798 2.25 11.75 3.92025 11.75 6C11.75 8.07975 10.0798 9.75 8 9.75C5.92025 9.75 4.25 8.07975 4.25 6C4.25 3.92025 5.92025 2.25 8 2.25Z" fill="white"/>
</svg>
